<svg viewBox="0 0 320 320" xmlns="http://www.w3.org/2000/svg"><style>
svg{background:#FFFFFF}
.m{stroke:#1F2533;stroke-width:3.4;fill:none;stroke-linecap:round;stroke-linejoin:round}
.ln{stroke:#1F2533;stroke-width:1.8;fill:none;stroke-linejoin:round}
.th{stroke:#5B6475;stroke-width:1.1;fill:none}
.dsh{stroke:#5B6475;stroke-width:1.1;fill:none;stroke-dasharray:5 4}
.ld{stroke:#E0313A;stroke-width:1.8;fill:none}
.dm{stroke:#8C95A8;stroke-width:1.1;fill:none}
.crit{stroke:#E0313A;stroke-width:3.4;fill:none;stroke-linecap:round}
.nd{stroke:#1F2533;stroke-width:1.8;fill:#FFFFFF}
.rb{fill:#1F2533;stroke:none} .fl{fill:#EEF1F6;stroke:none} .hl{fill:#FDE7E8;stroke:none} .sup{fill:#EEF1F6;stroke:#1F2533;stroke-width:1.8}
.tx,.tb,.ts,.tr,.tm{font-family:Pretendard, 'Noto Sans KR', sans-serif;fill:#1F2533;font-size:15px}
.tb{font-weight:800} .ts{font-size:12.5px;fill:#5B6475} .tr{fill:#E0313A;font-weight:800} .tm{font-style:italic;font-family:'Times New Roman',serif;font-size:16px}
</style><defs>
<marker id="ar" viewBox="0 0 10 10" refX="9" refY="5" markerWidth="7" markerHeight="7" orient="auto-start-reverse"><path d="M0,0 L10,5 L0,10 z" fill="#E0313A"/></marker>
<marker id="ai" viewBox="0 0 10 10" refX="9" refY="5" markerWidth="6" markerHeight="6" orient="auto-start-reverse"><path d="M0,0 L10,5 L0,10 z" fill="#1F2533"/></marker>
<marker id="dmk" viewBox="0 0 10 10" refX="5" refY="5" markerWidth="8" markerHeight="8" orient="auto"><path d="M2,8 L8,2" stroke="#8C95A8" stroke-width="1.4"/></marker>
<pattern id="hat" width="7" height="7" patternUnits="userSpaceOnUse" patternTransform="rotate(45)"><line x1="0" y1="0" x2="0" y2="7" stroke="#9AA3B5" stroke-width="1.2"/></pattern>
</defs>
  <!-- T/S 고력볼트 -->
  <path class="fl" d="M120,76 Q120,56 150,54 Q180,56 180,76 Z"/><path class="ln" d="M120,76 Q120,56 150,54 Q180,56 180,76 Z" fill="none"/>
  <rect class="fl" x="132" y="76" width="36" height="124"/><rect class="ln" x="132" y="76" width="36" height="124"/>
  <rect class="hl" x="114" y="200" width="72" height="8"/><rect class="ln" x="114" y="200" width="72" height="8"/>
  <rect class="fl" x="122" y="208" width="56" height="30"/><rect class="ln" x="122" y="208" width="56" height="30"/>
  <line class="th" x1="140" y1="208" x2="140" y2="238"/><line class="th" x1="160" y1="208" x2="160" y2="238"/>
  <rect class="fl" x="138" y="238" width="24" height="12"/><rect class="ln" x="138" y="238" width="24" height="12"/>
  <rect class="fl" x="138" y="250" width="24" height="26"/><rect class="ln" x="138" y="250" width="24" height="26"/>
  <line class="th" x1="138" y1="263" x2="162" y2="263"/>
  <!-- 3 머리 폭 -->
  <line class="th" x1="120" y1="76" x2="120" y2="38"/><line class="th" x1="180" y1="76" x2="180" y2="38"/>
  <line class="dm" x1="120" y1="44" x2="180" y2="44" marker-start="url(#dmk)" marker-end="url(#dmk)"/>
  <circle class="nd" cx="150" cy="22" r="11"/><text class="tb" x="146" y="27">3</text>
  <!-- 1, 2 길이 표시 -->
  <line class="th" x1="132" y1="76" x2="84" y2="76"/><line class="th" x1="114" y1="204" x2="84" y2="204"/><line class="th" x1="122" y1="238" x2="84" y2="238"/>
  <line class="dm" x1="92" y1="76" x2="92" y2="204" marker-start="url(#dmk)" marker-end="url(#dmk)"/>
  <line class="dm" x1="92" y1="204" x2="92" y2="238" marker-start="url(#dmk)" marker-end="url(#dmk)"/>
  <circle class="nd" cx="60" cy="140" r="11"/><text class="tb" x="56" y="145">1</text>
  <circle class="nd" cx="60" cy="222" r="11"/><text class="tb" x="56" y="227">2</text>
  <!-- 4 와셔, 5 끝 돌출부 -->
  <circle class="nd" cx="250" cy="170" r="11"/><text class="tb" x="246" y="175">4</text>
  <line class="th" x1="240" y1="176" x2="188" y2="203" marker-end="url(#ai)"/>
  <circle class="nd" cx="250" cy="270" r="11"/><text class="tb" x="246" y="275">5</text>
  <line class="th" x1="239" y1="268" x2="164" y2="264" marker-end="url(#ai)"/>
</svg>