<svg viewBox="0 0 640 340" xmlns="http://www.w3.org/2000/svg"><style>
svg{background:#FFFFFF}
.m{stroke:#1F2533;stroke-width:3.4;fill:none;stroke-linecap:round;stroke-linejoin:round}
.ln{stroke:#1F2533;stroke-width:1.8;fill:none;stroke-linejoin:round}
.th{stroke:#5B6475;stroke-width:1.1;fill:none}
.dsh{stroke:#5B6475;stroke-width:1.1;fill:none;stroke-dasharray:5 4}
.ld{stroke:#E0313A;stroke-width:1.8;fill:none}
.dm{stroke:#8C95A8;stroke-width:1.1;fill:none}
.crit{stroke:#E0313A;stroke-width:3.4;fill:none;stroke-linecap:round}
.nd{stroke:#1F2533;stroke-width:1.8;fill:#FFFFFF}
.rb{fill:#1F2533;stroke:none} .fl{fill:#EEF1F6;stroke:none} .hl{fill:#FDE7E8;stroke:none} .sup{fill:#EEF1F6;stroke:#1F2533;stroke-width:1.8}
.tx,.tb,.ts,.tr,.tm{font-family:Pretendard, 'Noto Sans KR', sans-serif;fill:#1F2533;font-size:15px}
.tb{font-weight:800} .ts{font-size:12.5px;fill:#5B6475} .tr{fill:#E0313A;font-weight:800} .tm{font-style:italic;font-family:'Times New Roman',serif;font-size:16px}
</style><defs>
<marker id="ar" viewBox="0 0 10 10" refX="9" refY="5" markerWidth="7" markerHeight="7" orient="auto-start-reverse"><path d="M0,0 L10,5 L0,10 z" fill="#E0313A"/></marker>
<marker id="ai" viewBox="0 0 10 10" refX="9" refY="5" markerWidth="6" markerHeight="6" orient="auto-start-reverse"><path d="M0,0 L10,5 L0,10 z" fill="#1F2533"/></marker>
<marker id="dmk" viewBox="0 0 10 10" refX="5" refY="5" markerWidth="8" markerHeight="8" orient="auto"><path d="M2,8 L8,2" stroke="#8C95A8" stroke-width="1.4"/></marker>
<pattern id="hat" width="7" height="7" patternUnits="userSpaceOnUse" patternTransform="rotate(45)"><line x1="0" y1="0" x2="0" y2="7" stroke="#9AA3B5" stroke-width="1.2"/></pattern>
</defs>
  <!-- 결합점: 0(60,170) 1(200,70) 2(200,260) 3(420,260) 4(420,70) 5(580,170) -->
  <line class="ln" x1="74" y1="160" x2="186" y2="80" marker-end="url(#ai)"/>
  <line class="crit" x1="74" y1="179" x2="186" y2="251" marker-end="url(#ar)"/>
  <line class="ln" x1="217" y1="70" x2="403" y2="70" marker-end="url(#ai)"/>
  <line class="dsh" x1="200" y1="87" x2="200" y2="243" marker-end="url(#ai)"/>
  <line class="crit" x1="213" y1="249" x2="407" y2="81" marker-end="url(#ar)"/>
  <line class="ln" x1="217" y1="260" x2="403" y2="260" marker-end="url(#ai)"/>
  <line class="dsh" x1="420" y1="243" x2="420" y2="87" marker-end="url(#ai)"/>
  <line class="crit" x1="434" y1="79" x2="566" y2="161" marker-end="url(#ar)"/>
  <line class="ln" x1="435" y1="252" x2="565" y2="179" marker-end="url(#ai)"/>
  <circle class="nd" cx="60" cy="170" r="17"/><text class="tb" x="55" y="175">0</text>
  <circle class="nd" cx="200" cy="70" r="17"/><text class="tb" x="195" y="75">1</text>
  <circle class="nd" cx="200" cy="260" r="17"/><text class="tb" x="195" y="265">2</text>
  <circle class="nd" cx="420" cy="260" r="17"/><text class="tb" x="415" y="265">3</text>
  <circle class="nd" cx="420" cy="70" r="17"/><text class="tb" x="415" y="75">4</text>
  <circle class="nd" cx="580" cy="170" r="17"/><text class="tb" x="575" y="175">5</text>
  <!-- 작업명 일수 -->
  <text class="tx" x="94" y="108">A 2</text><text class="tx" x="86" y="224">B 3</text>
  <text class="tx" x="295" y="58">C 5</text><text class="tx" x="326" y="170">D 5</text>
  <text class="tx" x="295" y="248">E 2</text><text class="tx" x="500" y="112">F 3</text>
  <text class="tx" x="500" y="234">G 5</text>
  <!-- EST | LST 상자 -->
  <rect class="th" x="36" y="194" width="48" height="18"/><text class="ts" x="46" y="207">0 | 0</text>
  <rect class="th" x="176" y="26" width="48" height="18"/><text class="ts" x="186" y="39">2 | 3</text>
  <rect class="th" x="176" y="282" width="48" height="18"/><text class="ts" x="186" y="295">3 | 3</text>
  <rect class="th" x="396" y="282" width="48" height="18"/><text class="ts" x="406" y="295">5 | 6</text>
  <rect class="th" x="396" y="26" width="48" height="18"/><text class="ts" x="406" y="39">8 | 8</text>
  <rect class="th" x="556" y="194" width="52" height="18"/><text class="ts" x="563" y="207">11 | 11</text>
  <text class="ts" x="16" y="328">굵은 선 = 주공정선 B→D→F (11일) · 상자 = EST | LST · 점선 = 더미</text>
</svg>