<svg viewBox="0 0 560 250" xmlns="http://www.w3.org/2000/svg"><style>
svg{background:#FFFFFF}
.m{stroke:#1F2533;stroke-width:3.4;fill:none;stroke-linecap:round;stroke-linejoin:round}
.ln{stroke:#1F2533;stroke-width:1.8;fill:none;stroke-linejoin:round}
.th{stroke:#5B6475;stroke-width:1.1;fill:none}
.dsh{stroke:#5B6475;stroke-width:1.1;fill:none;stroke-dasharray:5 4}
.ld{stroke:#E0313A;stroke-width:1.8;fill:none}
.dm{stroke:#8C95A8;stroke-width:1.1;fill:none}
.crit{stroke:#E0313A;stroke-width:3.4;fill:none;stroke-linecap:round}
.nd{stroke:#1F2533;stroke-width:1.8;fill:#FFFFFF}
.rb{fill:#1F2533;stroke:none} .fl{fill:#EEF1F6;stroke:none} .hl{fill:#FDE7E8;stroke:none} .sup{fill:#EEF1F6;stroke:#1F2533;stroke-width:1.8}
.tx,.tb,.ts,.tr,.tm{font-family:Pretendard, 'Noto Sans KR', sans-serif;fill:#1F2533;font-size:15px}
.tb{font-weight:800} .ts{font-size:12.5px;fill:#5B6475} .tr{fill:#E0313A;font-weight:800} .tm{font-style:italic;font-family:'Times New Roman',serif;font-size:16px}
</style><defs>
<marker id="ar" viewBox="0 0 10 10" refX="9" refY="5" markerWidth="7" markerHeight="7" orient="auto-start-reverse"><path d="M0,0 L10,5 L0,10 z" fill="#E0313A"/></marker>
<marker id="ai" viewBox="0 0 10 10" refX="9" refY="5" markerWidth="6" markerHeight="6" orient="auto-start-reverse"><path d="M0,0 L10,5 L0,10 z" fill="#1F2533"/></marker>
<marker id="dmk" viewBox="0 0 10 10" refX="5" refY="5" markerWidth="8" markerHeight="8" orient="auto"><path d="M2,8 L8,2" stroke="#8C95A8" stroke-width="1.4"/></marker>
<pattern id="hat" width="7" height="7" patternUnits="userSpaceOnUse" patternTransform="rotate(45)"><line x1="0" y1="0" x2="0" y2="7" stroke="#9AA3B5" stroke-width="1.2"/></pattern>
</defs>
  <line class="m" x1="70" y1="140" x2="470" y2="140"/>
  <rect class="sup" x="470" y="95" width="16" height="90"/>
  <rect x="486" y="95" width="16" height="90" fill="url(#hat)"/>
  <text class="tb" x="452" y="128">A</text>
  <polygon class="hl" points="70,140 270,140 270,62"/>
  <line class="ld" x1="70" y1="140" x2="270" y2="62"/>
  <line class="ld" x1="120" y1="121" x2="120" y2="137" marker-end="url(#ar)"/>
  <line class="ld" x1="170" y1="101" x2="170" y2="137" marker-end="url(#ar)"/>
  <line class="ld" x1="220" y1="82" x2="220" y2="137" marker-end="url(#ar)"/>
  <line class="ld" x1="270" y1="62" x2="270" y2="137" marker-end="url(#ar)"/>
  <text class="tr" x="280" y="62">2 kN/m</text>
  <path class="ld" d="M58,108 A34,34 0 1,0 58,172" marker-end="url(#ar)"/>
  <text class="tr" x="16" y="94">12 kN·m</text>
  <line class="th" x1="70" y1="150" x2="70" y2="212"/><line class="th" x1="270" y1="150" x2="270" y2="212"/><line class="th" x1="470" y1="190" x2="470" y2="212"/>
  <line class="dm" x1="70" y1="204" x2="270" y2="204" marker-start="url(#dmk)" marker-end="url(#dmk)"/>
  <line class="dm" x1="270" y1="204" x2="470" y2="204" marker-start="url(#dmk)" marker-end="url(#dmk)"/>
  <text class="tx" x="158" y="228">4 m</text><text class="tx" x="358" y="228">4 m</text>
</svg>