<svg viewBox="0 0 360 340" xmlns="http://www.w3.org/2000/svg"><style>
svg{background:#FFFFFF}
.m{stroke:#1F2533;stroke-width:3.4;fill:none;stroke-linecap:round;stroke-linejoin:round}
.ln{stroke:#1F2533;stroke-width:1.8;fill:none;stroke-linejoin:round}
.th{stroke:#5B6475;stroke-width:1.1;fill:none}
.dsh{stroke:#5B6475;stroke-width:1.1;fill:none;stroke-dasharray:5 4}
.ld{stroke:#E0313A;stroke-width:1.8;fill:none}
.dm{stroke:#8C95A8;stroke-width:1.1;fill:none}
.crit{stroke:#E0313A;stroke-width:3.4;fill:none;stroke-linecap:round}
.nd{stroke:#1F2533;stroke-width:1.8;fill:#FFFFFF}
.rb{fill:#1F2533;stroke:none} .fl{fill:#EEF1F6;stroke:none} .hl{fill:#FDE7E8;stroke:none} .sup{fill:#EEF1F6;stroke:#1F2533;stroke-width:1.8}
.tx,.tb,.ts,.tr,.tm{font-family:Pretendard, 'Noto Sans KR', sans-serif;fill:#1F2533;font-size:15px}
.tb{font-weight:800} .ts{font-size:12.5px;fill:#5B6475} .tr{fill:#E0313A;font-weight:800} .tm{font-style:italic;font-family:'Times New Roman',serif;font-size:16px}
</style><defs>
<marker id="ar" viewBox="0 0 10 10" refX="9" refY="5" markerWidth="7" markerHeight="7" orient="auto-start-reverse"><path d="M0,0 L10,5 L0,10 z" fill="#E0313A"/></marker>
<marker id="ai" viewBox="0 0 10 10" refX="9" refY="5" markerWidth="6" markerHeight="6" orient="auto-start-reverse"><path d="M0,0 L10,5 L0,10 z" fill="#1F2533"/></marker>
<marker id="dmk" viewBox="0 0 10 10" refX="5" refY="5" markerWidth="8" markerHeight="8" orient="auto"><path d="M2,8 L8,2" stroke="#8C95A8" stroke-width="1.4"/></marker>
<pattern id="hat" width="7" height="7" patternUnits="userSpaceOnUse" patternTransform="rotate(45)"><line x1="0" y1="0" x2="0" y2="7" stroke="#9AA3B5" stroke-width="1.2"/></pattern>
</defs>
  <!-- 직사각형 단면 b x h -->
  <rect class="fl" x="110" y="30" width="120" height="240"/>
  <rect class="ln" x="110" y="30" width="120" height="240"/>
  <!-- 도심축 X -->
  <line class="dsh" x1="70" y1="150" x2="276" y2="150"/>
  <text class="tb" x="284" y="156">X</text>
  <!-- 높이 치수 -->
  <line class="th" x1="234" y1="30" x2="262" y2="30"/><line class="th" x1="234" y1="270" x2="262" y2="270"/>
  <line class="dm" x1="254" y1="30" x2="254" y2="150" marker-start="url(#dmk)" marker-end="url(#dmk)"/>
  <line class="dm" x1="254" y1="150" x2="254" y2="270" marker-start="url(#dmk)" marker-end="url(#dmk)"/>
  <text class="tm" x="288" y="96">h/2</text><text class="tm" x="288" y="216">h/2</text>
  <!-- 폭 치수 -->
  <line class="th" x1="110" y1="276" x2="110" y2="304"/><line class="th" x1="230" y1="276" x2="230" y2="304"/>
  <line class="dm" x1="110" y1="298" x2="230" y2="298" marker-start="url(#dmk)" marker-end="url(#dmk)"/>
  <text class="tm" x="164" y="324">b</text>
</svg>